<svg xmlns="http://www.w3.org/2000/svg" viewBox="0 0 100 100" fill="none">
  <!-- Swooshes/Orbits representing local networking and dynamic flows -->
  <path d="M 15,65 C 32,80 68,80 85,65" stroke="#14b8a6" stroke-width="3" stroke-linecap="round" />
  <path d="M 8,58 C 28,78 72,78 92,58" stroke="#0ea5e9" stroke-width="2.5" stroke-linecap="round" />
  <path d="M 22,71 C 37,84 63,84 78,71" stroke="#6366f1" stroke-width="2" stroke-linecap="round" />
  
  <!-- 8-pointed star in the center representing leadership, precision and point of sale -->
  <polygon 
    points="50,8 54,32 78,32 59,45 68,69 50,54 32,69 41,45 22,32 46,32" 
    fill="#0a2a50" 
    stroke="#ffffff" 
    stroke-width="2.5" 
    stroke-linejoin="miter"
  />
  <polygon 
    points="50,13 53,33 73,33 57,44 65,64 50,51 35,64 43,44 27,33 47,33" 
    fill="#1c3e6a" 
    stroke="#3b82f6" 
    stroke-width="1" 
    stroke-linejoin="miter"
  />
</svg>
